<svg viewBox="0 0 420 595" fill="none" xmlns="http://www.w3.org/2000/svg">
    <g clip-path="url(#clip0_12_8)">
        <path
            d="M75.74 144.72C72.5 144.72 68.78 144.54 64.58 144.18C62.9 144.06 60.92 143.94 58.64 143.82C56.36 143.7 53.78 143.64 50.9 143.64L38.66 143.82C36.62 143.94 33.86 144 30.38 144C30.14 144 29.96 143.64 29.84 142.92C29.84 142.2 30.02 141.84 30.38 141.84C34.58 141.84 37.7 141.54 39.74 140.94C41.78 140.22 43.16 139.02 43.88 137.34C44.72 135.66 45.08 133.02 44.96 129.42V46.08C44.84 42.48 44.42 39.84 43.7 38.16C42.98 36.48 41.6 35.34 39.56 34.74C37.64 34.02 34.58 33.66 30.38 33.66C30.14 33.66 29.96 33.3 29.84 32.58C29.84 31.86 30.02 31.5 30.38 31.5L38.84 31.68C43.64 31.92 47.6 32.04 50.72 32.04C54.68 32.04 58.7 31.86 62.78 31.5C67.82 31.26 71.3 31.14 73.22 31.14C85.1 31.14 95.66 33.54 104.9 38.34C114.26 43.02 121.52 49.56 126.68 57.96C131.84 66.24 134.42 75.54 134.42 85.86C134.42 97.5 131.72 107.82 126.32 116.82C121.04 125.7 113.9 132.6 104.9 137.52C96.02 142.32 86.3 144.72 75.74 144.72ZM73.94 142.2C83.18 142.2 91.34 140.16 98.42 136.08C105.5 132 111.02 126.06 114.98 118.26C118.94 110.34 120.92 100.86 120.92 89.82C120.92 79.62 119.06 70.26 115.34 61.74C111.62 53.1 106.22 46.26 99.14 41.22C92.18 36.18 83.9 33.66 74.3 33.66C67.46 33.66 62.78 34.5 60.26 36.18C57.74 37.86 56.48 41.28 56.48 46.44V127.44C56.48 132.72 57.68 136.5 60.08 138.78C62.48 141.06 67.1 142.2 73.94 142.2Z"
            fill="white" />
        <path
            d="M219.616 308.768C219.616 308.704 219.68 308.672 219.808 308.672C219.936 308.672 220 308.704 220 308.768L219.968 311.296L220 312.96C220 313.216 219.968 313.387 219.904 313.472C219.84 313.536 219.669 313.568 219.392 313.568L216.928 313.568C218.144 314.912 219.029 316.203 219.584 317.44C220.117 318.656 220.384 319.979 220.384 321.408C220.384 322.752 220.128 323.968 219.616 325.056C219.104 326.123 218.368 326.965 217.408 327.584C216.448 328.181 215.328 328.48 214.048 328.48L202.592 328.48C201.952 328.48 201.483 328.544 201.184 328.672C200.885 328.8 200.683 329.056 200.576 329.44C200.448 329.803 200.384 330.389 200.384 331.2C200.384 331.264 200.32 331.296 200.192 331.296C200.064 331.296 200 331.264 200 331.2L200.032 329.632C200.075 328.736 200.096 328.021 200.096 327.488C200.096 326.891 200.075 326.123 200.032 325.184L200 323.68C200 323.637 200.064 323.616 200.192 323.616C200.32 323.616 200.384 323.637 200.384 323.68C200.384 324.469 200.448 325.056 200.576 325.44C200.704 325.824 200.928 326.091 201.248 326.24C201.547 326.368 202.016 326.432 202.656 326.432L212.928 326.432C215.061 326.432 216.693 325.909 217.824 324.864C218.933 323.797 219.488 322.357 219.488 320.544C219.488 319.328 219.253 318.176 218.784 317.088C218.293 316 217.483 314.827 216.352 313.568L202.656 313.568C202.016 313.568 201.547 313.632 201.248 313.76C200.928 313.888 200.704 314.144 200.576 314.528C200.448 314.891 200.384 315.477 200.384 316.288C200.384 316.352 200.32 316.384 200.192 316.384C200.064 316.384 200 316.352 200 316.288L200.032 314.752C200.075 313.813 200.096 313.067 200.096 312.512C200.096 311.957 200.075 311.232 200.032 310.336L200 308.768C200 308.704 200.064 308.672 200.192 308.672C200.32 308.672 200.384 308.704 200.384 308.768C200.384 309.579 200.448 310.176 200.576 310.56C200.683 310.923 200.885 311.179 201.184 311.328C201.483 311.456 201.952 311.52 202.592 311.52L217.408 311.52C218.048 311.52 218.528 311.456 218.848 311.328C219.147 311.179 219.349 310.923 219.456 310.56C219.563 310.176 219.616 309.579 219.616 308.768ZM200 285.066C200 285.002 200.064 284.97 200.192 284.97C200.32 284.97 200.384 285.002 200.384 285.066C200.384 285.962 200.629 286.612 201.12 287.018C201.611 287.423 202.411 287.626 203.52 287.626L220.384 287.626C220.427 287.626 220.459 287.679 220.48 287.786C220.501 287.892 220.491 287.967 220.448 288.01L202.624 302.73L202.304 303.018L216.512 303.018C217.621 303.018 218.421 302.826 218.912 302.442C219.381 302.036 219.616 301.396 219.616 300.522C219.616 300.458 219.68 300.426 219.808 300.426C219.936 300.426 220 300.458 220 300.522C220 301.055 219.989 301.46 219.968 301.738L219.936 303.338L219.968 304.97C219.989 305.268 220 305.706 220 306.282C220 306.324 219.936 306.346 219.808 306.346C219.68 306.346 219.616 306.324 219.616 306.282C219.616 305.364 219.381 304.714 218.912 304.33C218.421 303.946 217.621 303.754 216.512 303.754L201.536 303.754C200.768 304.586 200.384 305.428 200.384 306.282C200.384 306.346 200.32 306.378 200.192 306.378C200.064 306.378 200 306.346 200 306.282L200.032 305.098C200.053 304.842 200.064 304.49 200.064 304.042C200.064 303.572 200.053 303.188 200.032 302.89C200.011 302.591 200 302.356 200 302.186C200 302.015 200.043 301.898 200.128 301.834C200.192 301.748 200.352 301.62 200.608 301.45C200.992 301.194 201.344 300.938 201.664 300.682L216.8 288.362L203.52 288.362C202.411 288.362 201.611 288.554 201.12 288.938C200.629 289.3 200.384 289.919 200.384 290.794C200.384 290.836 200.32 290.858 200.192 290.858C200.064 290.858 200 290.836 200 290.794L200.032 289.546C200.075 288.906 200.096 288.383 200.096 287.978C200.096 287.594 200.075 287.06 200.032 286.378L200 285.066ZM220.128 274.648C220.128 275.266 220.096 275.981 220.032 276.792C220.011 277.09 219.989 277.474 219.968 277.944C219.947 278.392 219.936 278.893 219.936 279.448L219.968 281.624C219.989 282.008 220 282.541 220 283.224C220 283.266 219.936 283.288 219.808 283.288C219.68 283.288 219.616 283.266 219.616 283.224C219.616 282.413 219.563 281.826 219.456 281.464C219.349 281.08 219.147 280.824 218.848 280.696C218.528 280.546 218.048 280.472 217.408 280.472L202.592 280.472C201.952 280.472 201.483 280.536 201.184 280.664C200.885 280.792 200.683 281.048 200.576 281.432C200.448 281.794 200.384 282.381 200.384 283.192C200.384 283.234 200.32 283.256 200.192 283.256C200.064 283.256 200 283.234 200 283.192L200.032 281.592C200.075 280.696 200.096 279.981 200.096 279.448C200.096 278.637 200.064 277.837 200 277.048C199.957 276.109 199.936 275.458 199.936 275.096C199.936 272.877 200.363 270.914 201.216 269.208C202.069 267.501 203.232 266.178 204.704 265.24C206.176 264.28 207.829 263.8 209.664 263.8C211.733 263.8 213.568 264.29 215.168 265.272C216.747 266.232 217.973 267.544 218.848 269.208C219.701 270.872 220.128 272.685 220.128 274.648ZM219.648 274.968C219.648 273.261 219.296 271.746 218.592 270.424C217.867 269.101 216.811 268.077 215.424 267.352C214.016 266.605 212.331 266.232 210.368 266.232C208.512 266.232 206.827 266.584 205.312 267.288C203.797 267.992 202.603 268.994 201.728 270.296C200.853 271.597 200.416 273.101 200.416 274.808C200.416 275.725 200.469 276.44 200.576 276.952C200.683 277.442 200.896 277.805 201.216 278.04C201.536 278.274 202.016 278.392 202.656 278.392L217.056 278.392C217.696 278.392 218.197 278.306 218.56 278.136C218.923 277.944 219.2 277.602 219.392 277.112C219.563 276.6 219.648 275.885 219.648 274.968Z"
            fill="white" />
        <path
            d="M393.42 449.5C393.66 449.5 393.78 449.86 393.78 450.58C393.78 451.3 393.66 451.66 393.42 451.66C388.5 451.66 384.9 453.04 382.62 455.8C380.34 458.44 379.26 462.76 379.38 468.76L379.2 563.8C379.2 564.04 379.02 564.22 378.66 564.34C378.42 564.58 378.18 564.7 377.94 564.7C377.22 564.7 376.68 564.46 376.32 563.98L299.64 464.26L298.38 462.64V542.92C298.5 548.92 299.58 553.24 301.62 555.88C303.66 558.52 307.08 559.84 311.88 559.84C312.24 559.84 312.42 560.2 312.42 560.92C312.42 561.64 312.24 562 311.88 562C309.12 562 306.96 561.94 305.4 561.82L296.4 561.64L287.58 561.82C286.02 561.94 283.68 562 280.56 562C280.2 562 280.02 561.64 280.02 560.92C280.02 560.2 280.2 559.84 280.56 559.84C285.36 559.84 288.9 558.52 291.18 555.88C293.46 553.24 294.54 548.92 294.42 542.92V458.32C289.86 453.88 285.24 451.66 280.56 451.66C280.2 451.66 280.02 451.3 280.02 450.58C280.02 449.86 280.2 449.5 280.56 449.5L287.76 449.68C289.08 449.8 290.94 449.86 293.34 449.86C295.5 449.86 297.3 449.8 298.74 449.68C300.3 449.56 301.5 449.5 302.34 449.5C303.18 449.5 303.78 449.74 304.14 450.22C304.62 450.58 305.22 451.42 305.94 452.74C307.26 454.9 308.64 456.94 310.08 458.86L375.6 545.08L375.42 468.76C375.3 462.64 374.22 458.26 372.18 455.62C370.14 452.98 366.72 451.66 361.92 451.66C361.68 451.66 361.56 451.3 361.56 450.58C361.56 449.86 361.68 449.5 361.92 449.5L368.4 449.68C372 449.92 375 450.04 377.4 450.04C379.56 450.04 382.44 449.92 386.04 449.68L393.42 449.5Z"
            fill="white" />
        <path
            d="M84.74 544.6C84.74 545.16 84.6667 545.64 84.52 546.04C84.4667 546.2 84.3733 546.227 84.24 546.12C84.1867 546.067 84.14 546 84.1 545.92C84.0733 545.84 84.08 545.753 84.12 545.66C84.2533 545.34 84.32 544.92 84.32 544.4C84.32 543.133 83.9 541.653 83.06 539.96C82.5 538.84 81.8133 537.787 81 536.8C80.1867 535.8 79.2933 534.947 78.32 534.24C77.3467 533.533 76.3533 533.053 75.34 532.8C75.02 532.72 74.7333 532.68 74.48 532.68C73.6933 532.68 73.1133 533 72.74 533.64C72.3533 534.267 72.16 535.14 72.16 536.26C72.16 536.353 72.1667 536.473 72.18 536.62C72.18 536.753 72.1867 536.92 72.2 537.12C72.2267 537.507 72.2867 537.913 72.38 538.34C72.46 538.753 72.5667 539.18 72.7 539.62C72.9667 540.5 73.3333 541.28 73.8 541.96C74.2533 542.64 74.7733 543.073 75.36 543.26C75.48 543.3 75.58 543.32 75.66 543.32C75.8067 543.32 75.92 543.273 76 543.18C76.08 543.087 76.16 542.947 76.24 542.76C76.28 542.68 76.3333 542.64 76.4 542.64C76.48 542.64 76.5467 542.667 76.6 542.72C76.7867 542.88 76.84 543.053 76.76 543.24C76.7467 543.28 76.7067 543.387 76.64 543.56C76.56 543.733 76.4667 543.867 76.36 543.96C76.2133 544.08 76.0533 544.14 75.88 544.14C75.8 544.14 75.64 544.107 75.4 544.04C74.7067 543.813 74.0867 543.3 73.54 542.5C73.1667 541.967 72.8467 541.38 72.58 540.74C72.3 540.087 72.08 539.433 71.92 538.78C71.7467 538.113 71.6467 537.493 71.62 536.92C71.6067 536.693 71.6 536.5 71.6 536.34C71.5867 536.167 71.58 536.033 71.58 535.94C71.58 533.1 72.4667 531.68 74.24 531.68C74.3867 531.68 74.56 531.693 74.76 531.72C74.9467 531.747 75.1533 531.787 75.38 531.84C77.02 532.267 78.5533 533.213 79.98 534.68C80.7 535.427 81.3533 536.233 81.94 537.1C82.5267 537.953 83.0267 538.827 83.44 539.72C83.8533 540.6 84.1733 541.46 84.4 542.3C84.6267 543.127 84.74 543.893 84.74 544.6ZM83.54 542.34C83.4733 542.687 83.3533 542.933 83.18 543.08C83.0067 543.213 82.7533 543.28 82.42 543.28C82.3533 543.28 82.2533 543.273 82.12 543.26C81.9867 543.247 81.8133 543.227 81.6 543.2C81.1333 543.133 80.5867 542.96 79.96 542.68C79.3333 542.387 78.6733 542.027 77.98 541.6C77.2867 541.173 76.6067 540.72 75.94 540.24C75.26 539.747 74.6533 539.26 74.12 538.78C74.1067 538.767 74.0867 538.767 74.06 538.78C74.0333 538.78 74.0133 538.8 74 538.84L73.96 538.88C73.9067 538.92 73.8667 538.927 73.84 538.9L73.28 538.42C73.1467 538.313 73.04 538.227 72.96 538.16C72.8667 538.08 72.8067 538.02 72.78 537.98C72.7133 537.913 72.68 537.807 72.68 537.66C72.68 537.487 72.7267 537.327 72.82 537.18C72.9133 537.02 73.0067 536.94 73.1 536.94C73.1667 536.94 73.22 536.967 73.26 537.02C73.5133 537.3 73.8333 537.613 74.22 537.96C74.5933 538.307 75.0467 538.687 75.58 539.1C76.2867 539.66 77 540.18 77.72 540.66C78.44 541.14 79.1067 541.54 79.72 541.86C80.32 542.167 80.8067 542.347 81.18 542.4L81.7 542.48C81.9 542.52 82.0867 542.54 82.26 542.54C82.54 542.54 82.7133 542.407 82.78 542.14C82.7933 542.007 82.8867 541.94 83.06 541.94C83.1933 541.94 83.3133 541.98 83.42 542.06C83.5267 542.14 83.5667 542.233 83.54 542.34ZM83.54 528.21C83.54 528.237 83.5333 528.264 83.52 528.29C83.52 528.317 83.5133 528.344 83.5 528.37C83.4067 528.557 83.2733 528.677 83.1 528.73C82.9267 528.784 82.7067 528.797 82.44 528.77C82.3333 528.744 82.1467 528.717 81.88 528.69C81.6133 528.65 81.4 528.604 81.24 528.55L82.22 529.57L82.76 530.13C83.1467 530.517 83.34 530.837 83.34 531.09C83.34 531.197 83.3 531.284 83.22 531.35C83.0733 531.47 82.8933 531.53 82.68 531.53C82.4 531.53 82.1 531.457 81.78 531.31C81.46 531.164 81.1533 530.99 80.86 530.79C80.5533 530.59 80.3 530.41 80.1 530.25C79.6067 529.85 79.22 529.464 78.94 529.09C78.66 528.704 78.52 528.304 78.52 527.89C78.52 527.664 78.56 527.444 78.64 527.23C78.72 527.004 78.8533 526.797 79.04 526.61L79.06 526.59C79.1 526.59 79.14 526.624 79.18 526.69C79.2067 526.717 79.2267 526.744 79.24 526.77C79.2533 526.784 79.2667 526.797 79.28 526.81C79.44 526.97 79.7067 527.15 80.08 527.35C80.4533 527.55 80.8467 527.724 81.26 527.87C81.66 528.017 82.0067 528.09 82.3 528.09C82.5667 528.09 82.7467 528.024 82.84 527.89C82.88 527.824 82.9 527.75 82.9 527.67C82.9 527.497 82.7933 527.257 82.58 526.95C82.5667 526.937 82.5467 526.91 82.52 526.87C82.48 526.817 82.4267 526.744 82.36 526.65C82.28 526.544 82.24 526.457 82.24 526.39C82.24 526.324 82.2667 526.29 82.32 526.29C82.4 526.29 82.4933 526.344 82.6 526.45C82.6667 526.53 82.74 526.624 82.82 526.73C82.9 526.824 82.98 526.937 83.06 527.07C83.2067 527.27 83.32 527.477 83.4 527.69C83.4933 527.904 83.54 528.077 83.54 528.21ZM82.26 530.47C82.26 530.19 81.8467 529.67 81.02 528.91C80.7933 528.71 80.58 528.53 80.38 528.37C80.1667 528.21 79.96 528.064 79.76 527.93C79.3733 527.69 79.1067 527.61 78.96 527.69C78.88 527.73 78.84 527.81 78.84 527.93C78.84 528.077 78.92 528.277 79.08 528.53C79.2267 528.784 79.42 529.044 79.66 529.31C79.9 529.564 80.14 529.797 80.38 530.01C80.5667 530.157 80.8267 530.304 81.16 530.45C81.4933 530.597 81.7667 530.67 81.98 530.67C82.1667 530.67 82.26 530.604 82.26 530.47ZM83.32 522.763C83.32 523.003 83.2267 523.123 83.04 523.123C82.92 523.123 82.7667 523.083 82.58 523.003C82.3933 522.909 82.2133 522.816 82.04 522.723C81.5867 522.469 81.1467 522.236 80.72 522.023C80.2933 521.809 79.84 521.603 79.36 521.403C79.1467 521.309 79.04 521.169 79.04 520.983C79.04 520.783 79.16 520.723 79.4 520.803C79.6 520.883 79.78 520.963 79.94 521.043C80.7 521.416 81.2133 521.603 81.48 521.603C81.6 521.603 81.6733 521.563 81.7 521.483C81.5533 521.296 81.4467 521.156 81.38 521.063C81.3 520.969 81.2533 520.916 81.24 520.903C81.0933 520.716 80.9267 520.509 80.74 520.283C80.54 520.043 80.3133 519.783 80.06 519.503C79.66 519.063 79.46 518.696 79.46 518.403C79.46 518.043 79.7867 517.889 80.44 517.943C80.6933 517.956 80.94 517.956 81.18 517.943C81.2333 517.929 81.3133 517.923 81.42 517.923C81.5133 517.923 81.6267 517.923 81.76 517.923C81.8933 517.923 81.96 517.843 81.96 517.683C81.96 517.496 81.9067 517.323 81.8 517.163L81.5 516.723L81.22 516.283C81.2067 516.256 81.2 516.209 81.2 516.143C81.2 516.063 81.26 516.063 81.38 516.143C82.42 516.983 82.94 517.676 82.94 518.223C82.94 518.329 82.92 518.436 82.88 518.543C82.84 518.636 82.7267 518.703 82.54 518.743C82.34 518.783 82.1267 518.809 81.9 518.823C81.6733 518.823 81.5 518.823 81.38 518.823L80.72 518.803C80.44 518.803 80.3 518.876 80.3 519.023C80.3 519.369 81.0133 520.223 82.44 521.583C82.5733 521.689 82.7533 521.856 82.98 522.083C83.2067 522.309 83.32 522.536 83.32 522.763ZM78.62 511.045C78.62 511.218 78.58 511.305 78.5 511.305C78.4333 511.305 78.34 511.258 78.22 511.165C78.0867 511.058 77.9733 510.938 77.88 510.805C77.6933 510.512 77.5333 510.285 77.4 510.125C77.2667 509.952 77.04 509.745 76.72 509.505C76.7467 509.492 76.8 509.485 76.88 509.485C77.0533 509.485 77.2667 509.558 77.52 509.705C77.76 509.838 77.98 509.992 78.18 510.165C78.38 510.338 78.5067 510.492 78.56 510.625C78.6 510.745 78.62 510.885 78.62 511.045ZM83.52 512.825C83.52 512.932 83.48 513.032 83.4 513.125C83.32 513.218 83.2133 513.265 83.08 513.265C82.8 513.265 82.2867 513.072 81.54 512.685L81.1 512.465C81.0733 512.438 81.0067 512.405 80.9 512.365C80.7933 512.312 80.6533 512.238 80.48 512.145C80.2933 512.052 80.1267 511.978 79.98 511.925C79.8333 511.872 79.6933 511.832 79.56 511.805C79.5467 511.805 79.52 511.778 79.48 511.725C79.44 511.672 79.4067 511.618 79.38 511.565L79.36 511.445C79.36 511.338 79.38 511.252 79.42 511.185C79.46 511.105 79.5133 511.078 79.58 511.105C79.78 511.198 79.9533 511.278 80.1 511.345C80.2467 511.412 80.3733 511.465 80.48 511.505L80.48 511.525C80.8133 511.672 81.1333 511.798 81.44 511.905C81.7333 511.998 82.0133 512.038 82.28 512.025L82.82 512.005C82.9533 512.018 83.0667 512.065 83.16 512.145C83.2 512.198 83.2467 512.272 83.3 512.365C83.3667 512.458 83.4333 512.578 83.5 512.725C83.5133 512.738 83.52 512.772 83.52 512.825ZM83.22 506.777C83.22 507.057 83.1467 507.304 83 507.517C82.7333 507.864 82.3333 508.037 81.8 508.037C81.2667 508.037 80.7 507.851 80.1 507.477C79.5 507.104 78.9467 506.537 78.44 505.777C78.3467 505.644 78.3 505.464 78.3 505.237C78.3 504.944 78.38 504.684 78.54 504.457C78.7 504.217 78.9067 504.124 79.16 504.177C79.5733 504.271 79.94 504.477 80.26 504.797C80.58 505.104 80.8667 505.471 81.12 505.897C81.36 506.311 81.5933 506.737 81.82 507.177C81.86 507.191 81.9 507.204 81.94 507.217C81.98 507.217 82.02 507.217 82.06 507.217C82.2467 507.217 82.4133 507.157 82.56 507.037C82.6933 506.904 82.76 506.724 82.76 506.497C82.76 506.324 82.7333 506.177 82.68 506.057C82.6 505.844 82.5267 505.671 82.46 505.537C82.3933 505.391 82.2933 505.224 82.16 505.037C82.0267 504.851 81.8267 504.597 81.56 504.277C81.4533 504.131 81.4 504.044 81.4 504.017C81.4 503.937 81.46 503.911 81.58 503.937C81.7933 504.071 82.0267 504.304 82.28 504.637C82.5333 504.957 82.7533 505.317 82.94 505.717C83.1267 506.104 83.22 506.457 83.22 506.777ZM81.28 507.057C81.28 506.951 81.1733 506.731 80.96 506.397C80.7467 506.064 80.5133 505.751 80.26 505.457C79.7933 504.951 79.4333 504.697 79.18 504.697C79.1133 504.697 79.0533 504.717 79 504.757C78.9333 504.797 78.9 504.857 78.9 504.937C78.9 505.191 79.2 505.617 79.8 506.217C80.2 506.631 80.6933 506.911 81.28 507.057ZM84.32 500.892C84.32 501.039 84.2733 501.166 84.18 501.272C84.0867 501.366 83.9733 501.406 83.84 501.392C83.2933 501.366 82.7667 501.266 82.26 501.092C81.7533 500.906 81.1467 500.639 80.44 500.292C80.3467 500.252 80.2667 500.219 80.2 500.192C80.12 500.152 80.0533 500.119 80 500.092C79.3733 499.799 78.7733 499.499 78.2 499.192C77.6267 498.886 77.0667 498.579 76.52 498.272L76.02 497.992C75.4467 497.672 74.9867 497.392 74.64 497.152C74.28 496.912 74.02 496.672 73.86 496.432C73.6733 496.126 73.58 495.939 73.58 495.872C73.58 495.766 73.6733 495.659 73.86 495.552C73.9933 495.486 74.32 495.619 74.84 495.952C75.1067 496.126 75.44 496.346 75.84 496.612C76.24 496.866 76.6933 497.172 77.2 497.532C77.2933 497.599 77.46 497.712 77.7 497.872C77.9267 498.019 78.2267 498.219 78.6 498.472C78.9733 498.726 79.3133 498.946 79.62 499.132C79.9133 499.319 80.1733 499.472 80.4 499.592C80.84 499.832 81.3133 500.059 81.82 500.272C82.3133 500.486 82.7 500.592 82.98 500.592C83.2333 500.592 83.36 500.492 83.36 500.292C83.36 499.972 83.0867 499.459 82.54 498.752C82.5533 498.672 82.5933 498.632 82.66 498.632C82.7133 498.632 82.8067 498.699 82.94 498.832C83.06 498.952 83.1867 499.106 83.32 499.292C83.4667 499.466 83.6333 499.672 83.82 499.912L84.06 500.232C84.2333 500.446 84.32 500.666 84.32 500.892ZM83.54 491.707C83.54 491.733 83.5333 491.76 83.52 491.787C83.52 491.813 83.5133 491.84 83.5 491.867C83.4067 492.053 83.2733 492.173 83.1 492.227C82.9267 492.28 82.7067 492.293 82.44 492.267C82.3333 492.24 82.1467 492.213 81.88 492.187C81.6133 492.147 81.4 492.1 81.24 492.047L82.22 493.067L82.76 493.627C83.1467 494.013 83.34 494.333 83.34 494.587C83.34 494.693 83.3 494.78 83.22 494.847C83.0733 494.967 82.8933 495.027 82.68 495.027C82.4 495.027 82.1 494.953 81.78 494.807C81.46 494.66 81.1533 494.487 80.86 494.287C80.5533 494.087 80.3 493.907 80.1 493.747C79.6067 493.347 79.22 492.96 78.94 492.587C78.66 492.2 78.52 491.8 78.52 491.387C78.52 491.16 78.56 490.94 78.64 490.727C78.72 490.5 78.8533 490.293 79.04 490.107L79.06 490.087C79.1 490.087 79.14 490.12 79.18 490.187C79.2067 490.213 79.2267 490.24 79.24 490.267C79.2533 490.28 79.2667 490.293 79.28 490.307C79.44 490.467 79.7067 490.647 80.08 490.847C80.4533 491.047 80.8467 491.22 81.26 491.367C81.66 491.513 82.0067 491.587 82.3 491.587C82.5667 491.587 82.7467 491.52 82.84 491.387C82.88 491.32 82.9 491.247 82.9 491.167C82.9 490.993 82.7933 490.753 82.58 490.447C82.5667 490.433 82.5467 490.407 82.52 490.367C82.48 490.313 82.4267 490.24 82.36 490.147C82.28 490.04 82.24 489.953 82.24 489.887C82.24 489.82 82.2667 489.787 82.32 489.787C82.4 489.787 82.4933 489.84 82.6 489.947C82.6667 490.027 82.74 490.12 82.82 490.227C82.9 490.32 82.98 490.433 83.06 490.567C83.2067 490.767 83.32 490.973 83.4 491.187C83.4933 491.4 83.54 491.573 83.54 491.707ZM82.26 493.967C82.26 493.687 81.8467 493.167 81.02 492.407C80.7933 492.207 80.58 492.027 80.38 491.867C80.1667 491.707 79.96 491.56 79.76 491.427C79.3733 491.187 79.1067 491.107 78.96 491.187C78.88 491.227 78.84 491.307 78.84 491.427C78.84 491.573 78.92 491.773 79.08 492.027C79.2267 492.28 79.42 492.54 79.66 492.807C79.9 493.06 80.14 493.293 80.38 493.507C80.5667 493.653 80.8267 493.8 81.16 493.947C81.4933 494.093 81.7667 494.167 81.98 494.167C82.1667 494.167 82.26 494.1 82.26 493.967ZM81.1 475.151C81.1 475.871 81.0067 476.517 80.82 477.091C80.6333 477.651 80.3733 478.097 80.04 478.431C79.7067 478.751 79.3267 478.911 78.9 478.911C78.42 478.911 77.9733 478.771 77.56 478.491C77.1467 478.197 76.7867 477.824 76.48 477.371C76.16 476.904 75.92 476.417 75.76 475.911C75.52 476.231 75.26 476.491 74.98 476.691C74.6867 476.877 74.3933 476.971 74.1 476.971C73.7133 476.971 73.3667 476.831 73.06 476.551C72.74 476.257 72.48 475.897 72.28 475.471C72.08 475.031 71.9733 474.604 71.96 474.191C71.9467 474.124 71.94 474.044 71.94 473.951C71.94 473.844 71.94 473.724 71.94 473.591C71.94 472.991 72.0267 472.517 72.2 472.171C72.3733 471.811 72.66 471.517 73.06 471.291C73.1533 471.237 73.2467 471.211 73.34 471.211C73.5933 471.211 73.8333 471.311 74.06 471.511C74.2733 471.711 74.38 471.957 74.38 472.251C74.38 472.317 74.3733 472.391 74.36 472.471C74.3333 472.537 74.3067 472.617 74.28 472.711C74.2267 472.844 74.1333 472.944 74 473.011C73.8533 473.077 73.6933 473.111 73.52 473.111C73.16 473.111 72.8333 472.984 72.54 472.731C72.42 473.011 72.36 473.351 72.36 473.751C72.36 474.604 72.5333 475.271 72.88 475.751C73.2133 476.217 73.6467 476.451 74.18 476.451C74.46 476.451 74.7267 476.371 74.98 476.211C75.2333 476.037 75.4533 475.817 75.64 475.551C75.4667 474.991 75.38 474.491 75.38 474.051C75.38 472.931 75.5533 472.371 75.9 472.371C75.9667 472.371 76.04 472.391 76.12 472.431C76.2933 472.524 76.4267 472.691 76.52 472.931C76.6 473.157 76.64 473.417 76.64 473.711C76.64 474.044 76.6 474.344 76.52 474.611C76.4533 474.797 76.3533 474.991 76.22 475.191C76.1533 475.297 76.0933 475.391 76.04 475.471C75.9867 475.537 75.9467 475.597 75.92 475.651C76.1467 476.317 76.5133 476.851 77.02 477.251C77.5133 477.637 78.0467 477.831 78.62 477.831C79.1667 477.831 79.6067 477.677 79.94 477.371C80.26 477.064 80.4933 476.671 80.64 476.191C80.7733 475.711 80.84 475.224 80.84 474.731C80.84 474.104 80.7133 473.531 80.46 473.011C80.22 472.464 79.9133 472.031 79.54 471.711C79.1533 471.377 78.7867 471.211 78.44 471.211C77.9867 471.211 77.6733 471.457 77.5 471.951C77.9 472.964 78.36 473.471 78.88 473.471C79.1067 473.471 79.22 473.557 79.22 473.731C79.22 473.877 79.1067 473.951 78.88 473.951C78.5733 473.951 78.3133 473.844 78.1 473.631C77.8867 473.404 77.7067 473.131 77.56 472.811C77.4133 472.491 77.2933 472.184 77.2 471.891C77.0933 471.584 77.0133 471.351 76.96 471.191C76.9067 471.017 76.8133 470.824 76.68 470.611C76.5333 470.397 76.3733 470.211 76.2 470.051C76.0133 469.877 75.84 469.791 75.68 469.791C75.5467 469.791 75.42 469.864 75.3 470.011C75.2733 470.037 75.2533 470.051 75.24 470.051C75.1733 470.051 75.1133 470.011 75.06 469.931C75.0067 469.837 75.0067 469.764 75.06 469.711C75.1933 469.511 75.3733 469.411 75.6 469.411C75.8 469.411 76.0133 469.504 76.24 469.691C76.4533 469.877 76.6467 470.104 76.82 470.371C76.9933 470.624 77.12 470.864 77.2 471.091L77.3 471.411C77.4333 470.811 77.74 470.511 78.22 470.511C78.3133 470.511 78.48 470.544 78.72 470.611C79.08 470.731 79.44 470.971 79.8 471.331C80.16 471.704 80.4667 472.211 80.72 472.851C80.9733 473.491 81.1 474.257 81.1 475.151ZM73.88 472.491C73.92 472.371 73.8867 472.264 73.78 472.171C73.66 472.077 73.5267 472.031 73.38 472.031C73.38 472.031 73.3267 472.044 73.22 472.071C72.94 472.177 72.7467 472.351 72.64 472.591C72.8667 472.804 73.1067 472.911 73.36 472.911C73.6267 472.911 73.8 472.771 73.88 472.491ZM76.28 473.731C76.28 473.411 76.1933 473.224 76.02 473.171L75.98 473.171C75.9 473.171 75.8333 473.231 75.78 473.351C75.7133 473.511 75.68 473.717 75.68 473.971C75.68 474.317 75.7267 474.671 75.82 475.031C75.8867 474.951 75.9467 474.864 76 474.771C76.0533 474.664 76.1067 474.551 76.16 474.431C76.24 474.231 76.28 473.997 76.28 473.731ZM84.8 455.672C84.8 455.872 84.74 456.045 84.62 456.192C84.5 456.325 84.3533 456.392 84.18 456.392C84.0867 456.392 84 456.372 83.92 456.332C83.08 455.985 81.9867 455.385 80.64 454.532L79.66 453.912C78.4067 453.112 77.2467 452.399 76.18 451.772C75.1 451.132 74.1467 450.625 73.32 450.252C72.48 449.879 71.8067 449.692 71.3 449.692C70.74 449.692 70.46 449.952 70.46 450.472C70.46 450.752 70.54 451.105 70.7 451.532C70.8733 451.959 71.0933 452.419 71.36 452.912C71.6267 453.392 71.9533 453.905 72.34 454.452C72.8467 455.172 73.4067 455.845 74.02 456.472C74.62 457.099 75.24 457.625 75.88 458.052C76.5067 458.465 77.1133 458.739 77.7 458.872C77.9267 458.925 78.1733 458.952 78.44 458.952C79.4667 458.952 79.98 458.352 79.98 457.152C79.98 457.059 79.9467 456.879 79.88 456.612C79.8 456.332 79.7133 456.052 79.62 455.772C79.5267 455.492 79.46 455.312 79.42 455.232C79.38 455.152 79.36 455.092 79.36 455.052C79.36 454.972 79.4 454.932 79.48 454.932C79.6 454.932 79.7067 455.032 79.8 455.232C79.8533 455.339 79.92 455.525 80 455.792C80.08 456.059 80.1533 456.325 80.22 456.592C80.2867 456.845 80.32 457.032 80.32 457.152C80.3067 457.952 80.1667 458.559 79.9 458.972C79.6333 459.372 79.1867 459.572 78.56 459.572C78.4533 459.572 78.3267 459.565 78.18 459.552C78.0333 459.525 77.8733 459.499 77.7 459.472C76.5667 459.232 75.44 458.612 74.32 457.612C73.5733 456.945 72.9 456.205 72.3 455.392C71.7 454.579 71.2 453.752 70.8 452.912C70.3867 452.059 70.1067 451.259 69.96 450.512C69.92 450.272 69.9 450.065 69.9 449.892C69.9 449.132 70.2667 448.752 71 448.752C71.2533 448.752 71.5333 448.792 71.84 448.872C72.4 449.005 72.9533 449.205 73.5 449.472C74.0333 449.725 74.6 450.045 75.2 450.432C75.8 450.805 76.4867 451.245 77.26 451.752L79 452.892C79.0267 452.905 79.0533 452.905 79.08 452.892C79.1067 452.865 79.1067 452.839 79.08 452.812C78.8533 452.599 78.5533 452.292 78.18 451.892C77.7933 451.492 77.3333 450.985 76.8 450.372C76.28 449.785 75.78 449.192 75.3 448.592C74.82 447.992 74.3933 447.425 74.02 446.892C73.6333 446.345 73.3333 445.859 73.12 445.432C72.8933 445.005 72.78 444.672 72.78 444.432C72.78 443.912 73.0467 443.652 73.58 443.652C73.9667 443.652 74.4533 443.805 75.04 444.112C75.5733 444.405 76.1133 444.699 76.66 444.992C77.1933 445.272 77.7267 445.545 78.26 445.812L78.26 445.832C80.1533 446.792 81.4067 447.332 82.02 447.452C82.1667 447.479 82.3 447.499 82.42 447.512C82.5267 447.525 82.62 447.532 82.7 447.532C82.94 447.532 83.1333 447.499 83.28 447.432C83.4267 447.352 83.5 447.225 83.5 447.052C83.5 446.879 83.4267 446.632 83.28 446.312C83.1467 445.992 82.9667 445.685 82.74 445.392C82.54 445.125 82.44 444.945 82.44 444.852C82.44 444.799 82.46 444.772 82.5 444.772C82.54 444.772 82.5933 444.792 82.66 444.832C82.82 444.925 82.98 445.085 83.14 445.312C83.4467 445.739 83.68 446.105 83.84 446.412C84.0133 446.705 84.1 446.952 84.1 447.152C84.1 447.525 83.98 447.832 83.74 448.072C83.5 448.299 83.16 448.412 82.72 448.412C82.6667 448.412 82.5867 448.405 82.48 448.392C82.3733 448.379 82.24 448.359 82.08 448.332C81.64 448.239 81.08 448.052 80.4 447.772C79.72 447.479 78.9467 447.119 78.08 446.692C77.2133 446.252 76.2933 445.779 75.32 445.272C74.9067 445.059 74.6067 444.952 74.42 444.952C74.2067 444.952 74.1 445.059 74.1 445.272C74.1 445.459 74.1733 445.712 74.32 446.032C74.4533 446.339 74.6267 446.672 74.84 447.032C75.0533 447.379 75.2733 447.719 75.5 448.052C75.7267 448.385 75.9267 448.665 76.1 448.892C76.54 449.452 77.0733 450.052 77.7 450.692C78.3267 451.319 78.9867 451.932 79.68 452.532C80.3733 453.119 81.0667 453.639 81.76 454.092C81.7867 454.105 81.84 454.119 81.92 454.132C81.9867 454.145 82.0733 454.159 82.18 454.172C82.46 454.185 82.7067 454.219 82.92 454.272C83.1333 454.312 83.36 454.399 83.6 454.532C83.7733 454.625 83.92 454.705 84.04 454.772C84.1733 454.839 84.2733 454.899 84.34 454.952C84.6467 455.139 84.8 455.379 84.8 455.672ZM83.34 441.57C83.34 442.09 83.1067 442.35 82.64 442.35C82.6133 442.35 82.5667 442.35 82.5 442.35C82.4333 442.337 82.3533 442.323 82.26 442.31C81.7133 442.177 81.1867 441.91 80.68 441.51C80.16 441.097 79.7067 440.623 79.32 440.09C79.16 439.89 79.08 439.57 79.08 439.13C79.08 438.877 79.12 438.657 79.2 438.47C79.2667 438.27 79.3733 438.13 79.52 438.05C79.6533 437.97 79.8067 437.93 79.98 437.93C80.0067 437.93 80.0467 437.937 80.1 437.95C80.1533 437.95 80.2133 437.957 80.28 437.97C80.2667 437.943 80.26 437.903 80.26 437.85C80.26 437.783 80.2533 437.703 80.24 437.61C80.2267 437.517 80.2133 437.43 80.2 437.35C80.1867 437.257 80.18 437.163 80.18 437.07L80.18 436.99C80.18 436.843 80.24 436.83 80.36 436.95C80.4667 437.057 80.5333 437.203 80.56 437.39L80.64 438.07C81.0133 438.203 81.3867 438.437 81.76 438.77C82.1333 439.09 82.46 439.45 82.74 439.85C83.0067 440.237 83.18 440.603 83.26 440.95C83.3133 441.15 83.34 441.357 83.34 441.57ZM80.36 439.01C80.36 438.93 80.36 438.837 80.36 438.73C80.3467 438.61 80.3333 438.477 80.32 438.33C80.2933 438.317 80.2333 438.31 80.14 438.31C79.9 438.31 79.7333 438.41 79.64 438.61C79.5733 438.717 79.54 438.85 79.54 439.01C79.54 439.21 79.6067 439.417 79.74 439.63C79.86 439.83 80.02 440.043 80.22 440.27C80.3133 439.99 80.36 439.57 80.36 439.01ZM82.64 440.97C82.64 440.837 82.58 440.65 82.46 440.41C82.3267 440.157 82.1533 439.897 81.94 439.63C81.7267 439.363 81.5 439.123 81.26 438.91C81.1933 438.843 81.1133 438.777 81.02 438.71C80.9133 438.643 80.8067 438.57 80.7 438.49L80.76 438.97C80.8667 439.717 80.9267 440.383 80.94 440.97C81.42 441.263 81.82 441.443 82.14 441.51C82.3133 441.523 82.44 441.477 82.52 441.37C82.6 441.263 82.64 441.13 82.64 440.97ZM83.54 431.343C83.54 431.37 83.5333 431.397 83.52 431.423C83.52 431.45 83.5133 431.477 83.5 431.503C83.4067 431.69 83.2733 431.81 83.1 431.863C82.9267 431.917 82.7067 431.93 82.44 431.903C82.3333 431.877 82.1467 431.85 81.88 431.823C81.6133 431.783 81.4 431.737 81.24 431.683L82.22 432.703L82.76 433.263C83.1467 433.65 83.34 433.97 83.34 434.223C83.34 434.33 83.3 434.417 83.22 434.483C83.0733 434.603 82.8933 434.663 82.68 434.663C82.4 434.663 82.1 434.59 81.78 434.443C81.46 434.297 81.1533 434.123 80.86 433.923C80.5533 433.723 80.3 433.543 80.1 433.383C79.6067 432.983 79.22 432.597 78.94 432.223C78.66 431.837 78.52 431.437 78.52 431.023C78.52 430.797 78.56 430.577 78.64 430.363C78.72 430.137 78.8533 429.93 79.04 429.743L79.06 429.723C79.1 429.723 79.14 429.757 79.18 429.823C79.2067 429.85 79.2267 429.877 79.24 429.903C79.2533 429.917 79.2667 429.93 79.28 429.943C79.44 430.103 79.7067 430.283 80.08 430.483C80.4533 430.683 80.8467 430.857 81.26 431.003C81.66 431.15 82.0067 431.223 82.3 431.223C82.5667 431.223 82.7467 431.157 82.84 431.023C82.88 430.957 82.9 430.883 82.9 430.803C82.9 430.63 82.7933 430.39 82.58 430.083C82.5667 430.07 82.5467 430.043 82.52 430.003C82.48 429.95 82.4267 429.877 82.36 429.783C82.28 429.677 82.24 429.59 82.24 429.523C82.24 429.457 82.2667 429.423 82.32 429.423C82.4 429.423 82.4933 429.477 82.6 429.583C82.6667 429.663 82.74 429.757 82.82 429.863C82.9 429.957 82.98 430.07 83.06 430.203C83.2067 430.403 83.32 430.61 83.4 430.823C83.4933 431.037 83.54 431.21 83.54 431.343ZM82.26 433.603C82.26 433.323 81.8467 432.803 81.02 432.043C80.7933 431.843 80.58 431.663 80.38 431.503C80.1667 431.343 79.96 431.197 79.76 431.063C79.3733 430.823 79.1067 430.743 78.96 430.823C78.88 430.863 78.84 430.943 78.84 431.063C78.84 431.21 78.92 431.41 79.08 431.663C79.2267 431.917 79.42 432.177 79.66 432.443C79.9 432.697 80.14 432.93 80.38 433.143C80.5667 433.29 80.8267 433.437 81.16 433.583C81.4933 433.73 81.7667 433.803 81.98 433.803C82.1667 433.803 82.26 433.737 82.26 433.603ZM84.18 425.803C84.18 426.083 84.04 426.203 83.76 426.163C83.2533 426.083 82.7467 425.943 82.24 425.743C81.9733 425.637 81.6667 425.503 81.32 425.343C80.9733 425.17 80.5867 424.97 80.16 424.743C79.9333 424.623 79.7333 424.523 79.56 424.443C79.3867 424.35 79.2467 424.277 79.14 424.223C78.9533 424.13 78.7533 424.037 78.54 423.943C78.3267 423.837 78.0933 423.73 77.84 423.623C76.7333 423.117 75.8667 422.683 75.24 422.323C74.6 421.95 74.1467 421.55 73.88 421.123C73.8533 421.097 73.8533 421.023 73.88 420.903C73.8933 420.783 73.92 420.67 73.96 420.563C74 420.443 74.0467 420.37 74.1 420.343C74.1933 420.303 74.3267 420.283 74.5 420.283C75.0333 420.283 75.6733 420.53 76.42 421.023C76.82 421.29 77.26 421.63 77.74 422.043C78.2067 422.443 78.7133 422.917 79.26 423.463L79.84 423.823C80.48 424.223 81.0267 424.537 81.48 424.763C81.9333 424.977 82.3333 425.057 82.68 425.003C82.76 424.977 82.8 424.943 82.8 424.903C82.8 424.863 82.7667 424.797 82.7 424.703C82.6333 424.61 82.5533 424.517 82.46 424.423C82.3667 424.317 82.2533 424.217 82.12 424.123C82.0533 424.057 81.98 424.003 81.9 423.963C81.82 423.91 81.7467 423.857 81.68 423.803C81.5333 423.723 81.4133 423.643 81.32 423.563C80.8933 423.31 80.5933 423.097 80.42 422.923C80.1267 422.63 79.98 422.37 79.98 422.143C79.98 421.877 80.1267 421.643 80.42 421.443C80.7 421.23 81.1067 421.003 81.64 420.763C82.04 420.59 82.3467 420.43 82.56 420.283C82.76 420.137 82.86 419.997 82.86 419.863C82.86 419.73 82.78 419.577 82.62 419.403C82.4733 419.243 82.3933 419.103 82.38 418.983C82.4733 418.903 82.5933 418.91 82.74 419.003C82.8733 419.097 83 419.237 83.12 419.423C83.2533 419.597 83.36 419.77 83.44 419.943C83.52 420.117 83.5467 420.25 83.52 420.343C83.4133 420.717 83.2267 421.01 82.96 421.223C82.68 421.423 82.32 421.623 81.88 421.823C81.7333 421.89 81.6067 421.95 81.5 422.003C81.38 422.057 81.2867 422.11 81.22 422.163C81.0867 422.257 81.02 422.383 81.02 422.543C81.02 422.663 81.08 422.803 81.2 422.963C81.3333 423.123 81.4933 423.283 81.68 423.443C81.8533 423.603 82.0667 423.757 82.32 423.903C82.4533 423.997 82.56 424.07 82.64 424.123C82.7067 424.163 82.7533 424.197 82.78 424.223C82.8733 424.29 83.0067 424.397 83.18 424.543C83.3667 424.677 83.5933 424.837 83.86 425.023C83.94 425.09 84.0133 425.197 84.08 425.343C84.1467 425.477 84.18 425.61 84.18 425.743L84.18 425.803ZM78.44 423.363C78.4667 423.323 78.4067 423.223 78.26 423.063C78.1 422.903 77.9 422.723 77.66 422.523C77.4067 422.31 77.1467 422.103 76.88 421.903C76.6 421.69 76.3533 421.523 76.14 421.403C75.4333 420.99 74.9667 420.783 74.74 420.783C74.6467 420.783 74.58 420.817 74.54 420.883C74.4333 421.017 74.4933 421.197 74.72 421.423C74.9333 421.65 75.22 421.877 75.58 422.103C75.9267 422.33 76.2733 422.523 76.62 422.683C76.8333 422.777 77.0733 422.877 77.34 422.983C77.6067 423.077 77.8467 423.157 78.06 423.223C78.26 423.29 78.3867 423.337 78.44 423.363Z"
            fill="white" />
    </g>
    <defs>
        <clipPath id="clip0_12_8">
            <rect width="420" height="595" fill="white" />
        </clipPath>
    </defs>
</svg>